<svg aria-hidden="true" overflow="hidden" style="position:absolute;width:0;height:0">
  <defs>
    <symbol id="article" viewBox="0 0 18 18">
      <path d="M16.001 11a1 1 0 0 0-1 1v2.5a.5.5 0 0 1-.5.5H3.499a.5.5 0 0 1-.5-.5v-11a.5.5 0 0 1 .5-.5h2.5a1 1 0 1 0 0-2h-4a1 1 0 0 0-1 1v14a1 1 0 0 0 1 1h14.002a1 1 0 0 0 1-1v-4a1 1 0 0 0-1-1z"/>
      <path d="m13.169 3.403 1.429 1.429L8.65 11H7V9.35l6.169-5.947zM13.182 1a.994.994 0 0 0-.706.292L5 8.5V13h4.501l7.209-7.475a.997.997 0 0 0 0-1.411l-2.822-2.822A.992.992 0 0 0 13.183 1z"/>
    </symbol>
    <symbol id="event" viewBox="0 0 18 18">
      <path d="M9 1a8 8 0 1 0 0 16A8 8 0 0 0 9 1zm0 14c-3.309 0-6-2.692-6-6s2.691-6 6-6 6 2.692 6 6-2.691 6-6 6z"/>
      <path d="M11.01 9H9.5a.5.5 0 0 1-.5-.5V6.99A.99.99 0 0 0 8.01 6h-.02a.99.99 0 0 0-.99.99v3.02c0 .547.443.99.99.99h3.02a.99.99 0 0 0 .99-.99v-.02a.99.99 0 0 0-.99-.99z"/>
    </symbol>
   
    <symbol id="video" viewBox="0 0 18 18">
      <path d="M17 2H1a1 1 0 0 0-1 1v12a1 1 0 0 0 1 1h16a1 1 0 0 0 1-1V3a1 1 0 0 0-1-1zM2 4h2v2H2V4zm0 4h2v2H2V8zm0 6v-2h2v2H2zm4 0V4h6v10H6zm10 0h-2v-2h2v2zm0-4h-2V8h2v2zm0-4h-2V4h2v2z"/>
    </symbol>
  </defs>
</svg>
